<svg width="86" height="83" viewBox="0 0 86 83" fill="none" xmlns="http://www.w3.org/2000/svg">
<path d="M21.4999 1.66006e-06V5.86068C21.4999 6.63029 21.639 7.39244 21.9091 8.10359C22.1791 8.81431 22.575 9.46042 23.074 10.005C23.5735 10.5491 24.1661 10.9808 24.8179 11.2752C25.4701 11.5697 26.1691 11.7214 26.875 11.7214L48.3765 11.7214C55.5042 11.7214 62.34 14.8086 67.3801 20.304C72.4202 25.7995 75.2518 33.2526 75.2519 41.0243C75.2519 44.8725 74.5567 48.6829 73.2061 52.2381C71.8555 55.7934 69.8758 59.0237 67.3802 61.7448C64.8846 64.4658 61.9219 66.6242 58.6612 68.0968C55.4006 69.5694 51.9058 70.3273 48.3765 70.3273L26.8766 70.3273C26.1707 70.327 25.4713 70.4785 24.8191 70.7729C24.1669 71.0673 23.5739 71.499 23.0749 72.0432C22.5754 72.5874 22.1795 73.2336 21.9091 73.9448C21.639 74.6559 21.4999 75.4181 21.4999 76.1879V82.0486L48.3753 82.0486C53.3162 82.0486 58.2088 80.9875 62.7737 78.9258C67.3386 76.8642 71.4863 73.8423 74.9801 70.0329C78.4739 66.2234 81.2453 61.7009 83.1361 56.7236C85.0269 51.7463 86.0001 46.4117 86 41.0243C86 30.1442 82.036 19.7094 74.98 12.0158C67.924 4.32233 58.354 1.66006e-06 48.3753 1.66006e-06L21.4999 1.66006e-06Z" fill="#1EED89"/>
<path d="M64.5017 41.0243C64.5017 36.3613 62.8029 31.8896 59.779 28.5927C56.7551 25.2953 52.6537 23.4431 48.3773 23.4431L21.4999 23.4431C18.6487 23.4431 15.9148 22.2081 13.8989 20.01C11.8829 17.8119 10.7502 14.8306 10.7502 11.7218V0.000426468H8.53743e-06L8.53743e-06 11.7213C8.53743e-06 17.9385 2.26509 23.9011 6.297 28.2977C10.3293 32.6939 15.7979 35.1636 21.4999 35.1636L48.3765 35.1636C49.8021 35.1636 51.1692 35.7812 52.1773 36.88C53.1853 37.9792 53.7516 39.47 53.7516 41.0243C53.7516 42.5787 53.1853 44.0693 52.1773 45.1684C51.1692 46.2675 49.8021 46.885 48.3765 46.885L21.4999 46.885C15.7979 46.885 10.3293 49.3548 6.297 53.7511C2.26509 58.1473 8.53743e-06 64.11 8.53743e-06 70.3273V82.0486H10.7518V70.3273C10.7518 67.219 11.8841 64.238 13.8997 62.0399C15.9152 59.8419 18.6491 58.6068 21.4999 58.6063L48.3765 58.6063C50.4941 58.6065 52.591 58.1518 54.5475 57.2682C56.5039 56.3847 58.2816 55.0896 59.779 53.457C61.2764 51.8243 62.4641 49.886 63.2745 47.7528C64.0848 45.6196 64.5018 43.3332 64.5017 41.0243Z" fill="black"/>
</svg>
